<svg width="22" height="26" viewBox="0 0 22 26" fill="none" xmlns="http://www.w3.org/2000/svg">
<path d="M18.7882 5.2H16.1882C16.1882 2.327 13.8612 0 10.9882 0C8.11523 0 5.78823 2.327 5.78823 5.2H3.18823C1.75823 5.2 0.588226 6.37 0.588226 7.8V23.4C0.588226 24.83 1.75823 26 3.18823 26H18.7882C20.2182 26 21.3882 24.83 21.3882 23.4V7.8C21.3882 6.37 20.2182 5.2 18.7882 5.2ZM10.9882 2.6C12.4182 2.6 13.5882 3.77 13.5882 5.2H8.38823C8.38823 3.77 9.55823 2.6 10.9882 2.6ZM18.7882 23.4H3.18823V7.8H5.78823V10.4C5.78823 11.115 6.37323 11.7 7.08823 11.7C7.80323 11.7 8.38823 11.115 8.38823 10.4V7.8H13.5882V10.4C13.5882 11.115 14.1732 11.7 14.8882 11.7C15.6032 11.7 16.1882 11.115 16.1882 10.4V7.8H18.7882V23.4Z" fill="#744236"/>
</svg>
