<svg width="27" height="26" viewBox="0 0 27 26" fill="none" xmlns="http://www.w3.org/2000/svg">
<path d="M13.7566 13C11.9691 13 10.4389 12.3635 9.16597 11.0906C7.89305 9.81771 7.25659 8.2875 7.25659 6.5C7.25659 4.7125 7.89305 3.18229 9.16597 1.90938C10.4389 0.636458 11.9691 0 13.7566 0C15.5441 0 17.0743 0.636458 18.3472 1.90938C19.6201 3.18229 20.2566 4.7125 20.2566 6.5C20.2566 8.2875 19.6201 9.81771 18.3472 11.0906C17.0743 12.3635 15.5441 13 13.7566 13ZM0.756592 26V21.45C0.756592 20.5292 0.993571 19.6828 1.46753 18.9109C1.94149 18.1391 2.57118 17.55 3.35659 17.1438C5.03576 16.3042 6.74201 15.6745 8.47534 15.2547C10.2087 14.8349 11.9691 14.625 13.7566 14.625C15.5441 14.625 17.3045 14.8349 19.0378 15.2547C20.7712 15.6745 22.4774 16.3042 24.1566 17.1438C24.942 17.55 25.5717 18.1391 26.0457 18.9109C26.5196 19.6828 26.7566 20.5292 26.7566 21.45V26H0.756592ZM4.00659 22.75H23.5066V21.45C23.5066 21.1521 23.4321 20.8812 23.2832 20.6375C23.1342 20.3937 22.9378 20.2042 22.6941 20.0688C21.2316 19.3375 19.7556 18.7891 18.266 18.4234C16.7764 18.0578 15.2733 17.875 13.7566 17.875C12.2399 17.875 10.7368 18.0578 9.24722 18.4234C7.75763 18.7891 6.28159 19.3375 4.81909 20.0688C4.57534 20.2042 4.37899 20.3937 4.23003 20.6375C4.08107 20.8812 4.00659 21.1521 4.00659 21.45V22.75ZM13.7566 9.75C14.6503 9.75 15.4154 9.43177 16.0519 8.79531C16.6884 8.15885 17.0066 7.39375 17.0066 6.5C17.0066 5.60625 16.6884 4.84115 16.0519 4.20469C15.4154 3.56823 14.6503 3.25 13.7566 3.25C12.8628 3.25 12.0977 3.56823 11.4613 4.20469C10.8248 4.84115 10.5066 5.60625 10.5066 6.5C10.5066 7.39375 10.8248 8.15885 11.4613 8.79531C12.0977 9.43177 12.8628 9.75 13.7566 9.75Z" fill="white"/>
</svg>
