<svg width="20" height="22" viewBox="0 0 20 22" fill="none" xmlns="http://www.w3.org/2000/svg">
<path d="M18.9905 19.1797C19.0145 19.3942 18.9929 19.6114 18.927 19.8169C18.8612 20.0225 18.7525 20.2118 18.6082 20.3723C18.4635 20.5326 18.2865 20.6605 18.0889 20.7474C17.8912 20.8344 17.6774 20.8785 17.4615 20.8769H2.53853C2.3226 20.8785 2.10876 20.8344 1.91111 20.7474C1.71346 20.6605 1.53646 20.5326 1.39179 20.3723C1.2475 20.2118 1.13884 20.0225 1.07296 19.8169C1.00708 19.6114 0.985464 19.3942 1.00954 19.1797L2.35505 7.11597H17.6449L18.9905 19.1797Z" stroke="white" stroke-width="2" stroke-linecap="round" stroke-linejoin="round"/>
<path d="M6.17749 7.11596V4.82247C6.17749 3.80869 6.58021 2.83643 7.29707 2.11958C8.01392 1.40272 8.98618 1 9.99996 1C11.0137 1 11.986 1.40272 12.7029 2.11958C13.4197 2.83643 13.8224 3.80869 13.8224 4.82247V7.11596" stroke="white" stroke-width="2" stroke-linecap="round" stroke-linejoin="round"/>
</svg>
