<svg width="20" height="26" viewBox="0 0 20 26" fill="none" xmlns="http://www.w3.org/2000/svg">
<mask id="path-1-outside-1_230_194" maskUnits="userSpaceOnUse" x="-0.5" y="-0.5" width="21" height="27" fill="black">
<rect fill="white" x="-0.5" y="-0.5" width="21" height="27"/>
<path d="M5.26367 25.4995C4.94462 25.4993 4.64295 25.5013 4.34133 25.4983C3.966 25.4946 3.71008 25.2243 3.6843 24.8363C3.61185 23.7458 3.52895 22.6561 3.45684 21.5656C3.44737 21.4224 3.39007 21.39 3.26275 21.3869C2.8362 21.3766 2.57408 21.138 2.53548 20.7074C2.48086 20.0982 2.44318 19.4873 2.39933 18.8771C2.33376 17.9647 2.26841 17.0524 2.20435 16.1399C2.16317 15.5533 2.12548 14.9664 2.08442 14.3798C2.02056 13.4673 1.9552 12.5549 1.89038 11.6425C1.87566 11.4351 1.85762 11.228 1.8463 11.0204C1.82306 10.5943 2.08904 10.2732 2.50457 10.2353C2.61778 10.225 2.65849 10.1816 2.65059 10.0695C2.60754 9.4593 2.56696 8.84887 2.52478 8.23856C2.51126 8.04307 2.49264 7.8479 2.48178 7.65227C2.47544 7.53816 2.42115 7.50101 2.31413 7.50218C1.96612 7.506 1.61803 7.5045 1.26998 7.50258C0.708846 7.49947 0.395789 7.08699 0.531519 6.53014C0.746422 5.64848 0.962004 4.76698 1.17784 3.88555C1.27581 3.48544 1.52663 3.2826 1.92575 3.27999C2.11717 3.27873 2.30874 3.27449 2.49998 3.28058C2.6251 3.28456 2.68837 3.23621 2.71884 3.10811C2.87529 2.45046 3.03858 1.79453 3.19943 1.13799C3.29348 0.754121 3.48521 0.558858 3.82147 0.508742C3.87852 0.500238 3.93711 0.50014 3.99499 0.500137C7.99181 0.499934 11.9886 0.499842 15.9855 0.500707C16.4436 0.500806 16.6803 0.685247 16.7958 1.14616C16.9543 1.77894 17.1079 2.41318 17.252 3.04955C17.2918 3.22541 17.3636 3.30093 17.5457 3.28464C17.7299 3.26815 17.9167 3.27594 18.1022 3.28171C18.4565 3.29273 18.7131 3.47817 18.799 3.81913C19.0337 4.75099 19.2633 5.68436 19.4791 6.62098C19.587 7.08956 19.265 7.49003 18.7917 7.5011C18.4438 7.50924 18.0951 7.51253 17.7477 7.49734C17.5718 7.48965 17.5088 7.5581 17.4996 7.72547C17.4823 8.03976 17.4565 8.35354 17.4353 8.66761C17.4009 9.17661 17.3674 9.68568 17.3349 10.1736C17.3754 10.2387 17.4191 10.2296 17.4583 10.2324C17.8954 10.2641 18.1721 10.5727 18.1477 11.026C18.1203 11.5361 18.0769 12.0453 18.0401 12.5548C17.9972 13.1472 17.9537 13.7394 17.9108 14.3318C17.8542 15.1136 17.7958 15.8954 17.7422 16.6774C17.6902 17.436 17.6459 18.1952 17.5937 18.9538C17.5517 19.5642 17.5084 20.1746 17.4552 20.784C17.4256 21.1224 17.1266 21.3844 16.7647 21.385C16.6016 21.3853 16.5433 21.4354 16.5338 21.6032C16.5008 22.1902 16.4542 22.7764 16.4132 23.3629C16.3772 23.8783 16.3482 24.3944 16.3041 24.909C16.2733 25.2681 15.9979 25.4983 15.6182 25.4986C13.8605 25.4996 12.1029 25.4991 10.3452 25.4992C8.65715 25.4993 6.96911 25.4994 5.26367 25.4995ZM9.04053 19.9489C9.60896 19.9489 10.1774 19.9489 10.7458 19.9489C12.4628 19.9489 14.1799 19.9469 15.8969 19.9523C16.0569 19.9528 16.1258 19.9087 16.1346 19.7387C16.1541 19.3593 16.1908 18.9809 16.2165 18.6018C16.2791 17.6775 16.3378 16.7529 16.4011 15.8287C16.492 14.5016 16.5832 13.1746 16.6814 11.8481C16.6938 11.68 16.6446 11.6571 16.4905 11.6593C15.6844 11.6707 14.8779 11.6777 14.072 11.6621C13.6292 11.6536 13.3472 11.3286 13.3641 10.906C13.3803 10.5031 13.6785 10.2345 14.1146 10.2332C14.6715 10.2315 15.2284 10.2263 15.7851 10.2346C15.96 10.2372 16.0316 10.1748 16.0431 9.99628C16.0941 9.20833 16.1522 8.42086 16.2101 7.63339C16.2161 7.552 16.1947 7.50627 16.1108 7.5046C16.0587 7.50356 16.0065 7.5027 15.9543 7.5027C12.0446 7.50291 8.13488 7.5032 4.22519 7.50352C4.12658 7.50352 4.02791 7.50624 3.92938 7.50341C3.81532 7.50013 3.78259 7.54741 3.79168 7.66693C3.84976 8.43086 3.90166 9.1953 3.95206 9.95981C3.96921 10.22 3.97682 10.2326 4.22195 10.2325C6.73366 10.2324 9.24538 10.2323 11.7571 10.2324C11.8731 10.2324 11.9897 10.2267 12.105 10.2364C12.59 10.2774 12.8796 10.8334 12.6522 11.2743C12.4884 11.5918 12.2126 11.6714 11.8926 11.6711C9.10828 11.6685 6.32398 11.6668 3.53967 11.6645C3.33181 11.6643 3.30952 11.6824 3.32242 11.8991C3.35631 12.4682 3.39438 13.0371 3.43164 13.606C3.46735 14.1513 3.50248 14.6966 3.54087 15.2417C3.5951 16.0117 3.6522 16.7816 3.70786 17.5515C3.7601 18.2742 3.81778 18.9965 3.8603 19.7198C3.87138 19.9083 3.94259 19.9527 4.11571 19.9521C5.7457 19.9463 7.37571 19.9488 9.04053 19.9489ZM4.97512 21.3891C4.75252 21.3938 4.74738 21.4062 4.76167 21.5974C4.81926 22.3672 4.87424 23.1372 4.92379 23.9076C4.94007 24.1607 4.93122 24.1615 5.18057 24.1615C8.38754 24.1616 11.5945 24.1617 14.8015 24.1617C14.8479 24.1617 14.8942 24.1607 14.9406 24.1605C15.0267 24.1601 15.0622 24.1149 15.068 24.0278C15.1236 23.1985 15.1807 22.3692 15.2392 21.5401C15.2469 21.4313 15.2018 21.3866 15.0988 21.3905C15.0351 21.3929 14.9712 21.3899 14.9075 21.3899C11.6077 21.3896 8.30794 21.3894 4.97512 21.3891ZM4.23678 4.72288C3.78427 4.72281 3.33176 4.7227 2.87925 4.72268C2.42154 4.72267 2.42136 4.72267 2.30981 5.17762C2.24109 5.45788 2.173 5.73831 2.09913 6.04119C7.37477 6.04119 12.6232 6.04119 17.8953 6.04119C17.8092 5.67918 17.729 5.34015 17.6479 5.00138C17.581 4.72198 17.5805 4.72192 17.3075 4.72194C12.9622 4.72223 8.61691 4.72257 4.23678 4.72288ZM11.8253 3.28079C13.1627 3.28079 14.5001 3.28079 15.8604 3.28079C15.8424 3.18372 15.8328 3.11464 15.8165 3.04726C15.7427 2.74174 15.661 2.43807 15.5947 2.13087C15.5645 1.99049 15.5047 1.93725 15.3601 1.93739C11.7827 1.94085 8.20528 1.94075 4.62785 1.93714C4.48814 1.937 4.43348 1.99459 4.40464 2.1236C4.33997 2.41286 4.26545 2.69979 4.19558 2.98784C4.1265 3.27261 4.13275 3.28049 4.4153 3.2805C6.8737 3.28057 9.3321 3.28067 11.8253 3.28079Z"/>
</mask>
<path d="M5.26367 25.4995C4.94462 25.4993 4.64295 25.5013 4.34133 25.4983C3.966 25.4946 3.71008 25.2243 3.6843 24.8363C3.61185 23.7458 3.52895 22.6561 3.45684 21.5656C3.44737 21.4224 3.39007 21.39 3.26275 21.3869C2.8362 21.3766 2.57408 21.138 2.53548 20.7074C2.48086 20.0982 2.44318 19.4873 2.39933 18.8771C2.33376 17.9647 2.26841 17.0524 2.20435 16.1399C2.16317 15.5533 2.12548 14.9664 2.08442 14.3798C2.02056 13.4673 1.9552 12.5549 1.89038 11.6425C1.87566 11.4351 1.85762 11.228 1.8463 11.0204C1.82306 10.5943 2.08904 10.2732 2.50457 10.2353C2.61778 10.225 2.65849 10.1816 2.65059 10.0695C2.60754 9.4593 2.56696 8.84887 2.52478 8.23856C2.51126 8.04307 2.49264 7.8479 2.48178 7.65227C2.47544 7.53816 2.42115 7.50101 2.31413 7.50218C1.96612 7.506 1.61803 7.5045 1.26998 7.50258C0.708846 7.49947 0.395789 7.08699 0.531519 6.53014C0.746422 5.64848 0.962004 4.76698 1.17784 3.88555C1.27581 3.48544 1.52663 3.2826 1.92575 3.27999C2.11717 3.27873 2.30874 3.27449 2.49998 3.28058C2.6251 3.28456 2.68837 3.23621 2.71884 3.10811C2.87529 2.45046 3.03858 1.79453 3.19943 1.13799C3.29348 0.754121 3.48521 0.558858 3.82147 0.508742C3.87852 0.500238 3.93711 0.50014 3.99499 0.500137C7.99181 0.499934 11.9886 0.499842 15.9855 0.500707C16.4436 0.500806 16.6803 0.685247 16.7958 1.14616C16.9543 1.77894 17.1079 2.41318 17.252 3.04955C17.2918 3.22541 17.3636 3.30093 17.5457 3.28464C17.7299 3.26815 17.9167 3.27594 18.1022 3.28171C18.4565 3.29273 18.7131 3.47817 18.799 3.81913C19.0337 4.75099 19.2633 5.68436 19.4791 6.62098C19.587 7.08956 19.265 7.49003 18.7917 7.5011C18.4438 7.50924 18.0951 7.51253 17.7477 7.49734C17.5718 7.48965 17.5088 7.5581 17.4996 7.72547C17.4823 8.03976 17.4565 8.35354 17.4353 8.66761C17.4009 9.17661 17.3674 9.68568 17.3349 10.1736C17.3754 10.2387 17.4191 10.2296 17.4583 10.2324C17.8954 10.2641 18.1721 10.5727 18.1477 11.026C18.1203 11.5361 18.0769 12.0453 18.0401 12.5548C17.9972 13.1472 17.9537 13.7394 17.9108 14.3318C17.8542 15.1136 17.7958 15.8954 17.7422 16.6774C17.6902 17.436 17.6459 18.1952 17.5937 18.9538C17.5517 19.5642 17.5084 20.1746 17.4552 20.784C17.4256 21.1224 17.1266 21.3844 16.7647 21.385C16.6016 21.3853 16.5433 21.4354 16.5338 21.6032C16.5008 22.1902 16.4542 22.7764 16.4132 23.3629C16.3772 23.8783 16.3482 24.3944 16.3041 24.909C16.2733 25.2681 15.9979 25.4983 15.6182 25.4986C13.8605 25.4996 12.1029 25.4991 10.3452 25.4992C8.65715 25.4993 6.96911 25.4994 5.26367 25.4995ZM9.04053 19.9489C9.60896 19.9489 10.1774 19.9489 10.7458 19.9489C12.4628 19.9489 14.1799 19.9469 15.8969 19.9523C16.0569 19.9528 16.1258 19.9087 16.1346 19.7387C16.1541 19.3593 16.1908 18.9809 16.2165 18.6018C16.2791 17.6775 16.3378 16.7529 16.4011 15.8287C16.492 14.5016 16.5832 13.1746 16.6814 11.8481C16.6938 11.68 16.6446 11.6571 16.4905 11.6593C15.6844 11.6707 14.8779 11.6777 14.072 11.6621C13.6292 11.6536 13.3472 11.3286 13.3641 10.906C13.3803 10.5031 13.6785 10.2345 14.1146 10.2332C14.6715 10.2315 15.2284 10.2263 15.7851 10.2346C15.96 10.2372 16.0316 10.1748 16.0431 9.99628C16.0941 9.20833 16.1522 8.42086 16.2101 7.63339C16.2161 7.552 16.1947 7.50627 16.1108 7.5046C16.0587 7.50356 16.0065 7.5027 15.9543 7.5027C12.0446 7.50291 8.13488 7.5032 4.22519 7.50352C4.12658 7.50352 4.02791 7.50624 3.92938 7.50341C3.81532 7.50013 3.78259 7.54741 3.79168 7.66693C3.84976 8.43086 3.90166 9.1953 3.95206 9.95981C3.96921 10.22 3.97682 10.2326 4.22195 10.2325C6.73366 10.2324 9.24538 10.2323 11.7571 10.2324C11.8731 10.2324 11.9897 10.2267 12.105 10.2364C12.59 10.2774 12.8796 10.8334 12.6522 11.2743C12.4884 11.5918 12.2126 11.6714 11.8926 11.6711C9.10828 11.6685 6.32398 11.6668 3.53967 11.6645C3.33181 11.6643 3.30952 11.6824 3.32242 11.8991C3.35631 12.4682 3.39438 13.0371 3.43164 13.606C3.46735 14.1513 3.50248 14.6966 3.54087 15.2417C3.5951 16.0117 3.6522 16.7816 3.70786 17.5515C3.7601 18.2742 3.81778 18.9965 3.8603 19.7198C3.87138 19.9083 3.94259 19.9527 4.11571 19.9521C5.7457 19.9463 7.37571 19.9488 9.04053 19.9489ZM4.97512 21.3891C4.75252 21.3938 4.74738 21.4062 4.76167 21.5974C4.81926 22.3672 4.87424 23.1372 4.92379 23.9076C4.94007 24.1607 4.93122 24.1615 5.18057 24.1615C8.38754 24.1616 11.5945 24.1617 14.8015 24.1617C14.8479 24.1617 14.8942 24.1607 14.9406 24.1605C15.0267 24.1601 15.0622 24.1149 15.068 24.0278C15.1236 23.1985 15.1807 22.3692 15.2392 21.5401C15.2469 21.4313 15.2018 21.3866 15.0988 21.3905C15.0351 21.3929 14.9712 21.3899 14.9075 21.3899C11.6077 21.3896 8.30794 21.3894 4.97512 21.3891ZM4.23678 4.72288C3.78427 4.72281 3.33176 4.7227 2.87925 4.72268C2.42154 4.72267 2.42136 4.72267 2.30981 5.17762C2.24109 5.45788 2.173 5.73831 2.09913 6.04119C7.37477 6.04119 12.6232 6.04119 17.8953 6.04119C17.8092 5.67918 17.729 5.34015 17.6479 5.00138C17.581 4.72198 17.5805 4.72192 17.3075 4.72194C12.9622 4.72223 8.61691 4.72257 4.23678 4.72288ZM11.8253 3.28079C13.1627 3.28079 14.5001 3.28079 15.8604 3.28079C15.8424 3.18372 15.8328 3.11464 15.8165 3.04726C15.7427 2.74174 15.661 2.43807 15.5947 2.13087C15.5645 1.99049 15.5047 1.93725 15.3601 1.93739C11.7827 1.94085 8.20528 1.94075 4.62785 1.93714C4.48814 1.937 4.43348 1.99459 4.40464 2.1236C4.33997 2.41286 4.26545 2.69979 4.19558 2.98784C4.1265 3.27261 4.13275 3.28049 4.4153 3.2805C6.8737 3.28057 9.3321 3.28067 11.8253 3.28079Z" fill="white"/>
<path d="M5.26367 25.4995C4.94462 25.4993 4.64295 25.5013 4.34133 25.4983C3.966 25.4946 3.71008 25.2243 3.6843 24.8363C3.61185 23.7458 3.52895 22.6561 3.45684 21.5656C3.44737 21.4224 3.39007 21.39 3.26275 21.3869C2.8362 21.3766 2.57408 21.138 2.53548 20.7074C2.48086 20.0982 2.44318 19.4873 2.39933 18.8771C2.33376 17.9647 2.26841 17.0524 2.20435 16.1399C2.16317 15.5533 2.12548 14.9664 2.08442 14.3798C2.02056 13.4673 1.9552 12.5549 1.89038 11.6425C1.87566 11.4351 1.85762 11.228 1.8463 11.0204C1.82306 10.5943 2.08904 10.2732 2.50457 10.2353C2.61778 10.225 2.65849 10.1816 2.65059 10.0695C2.60754 9.4593 2.56696 8.84887 2.52478 8.23856C2.51126 8.04307 2.49264 7.8479 2.48178 7.65227C2.47544 7.53816 2.42115 7.50101 2.31413 7.50218C1.96612 7.506 1.61803 7.5045 1.26998 7.50258C0.708846 7.49947 0.395789 7.08699 0.531519 6.53014C0.746422 5.64848 0.962004 4.76698 1.17784 3.88555C1.27581 3.48544 1.52663 3.2826 1.92575 3.27999C2.11717 3.27873 2.30874 3.27449 2.49998 3.28058C2.6251 3.28456 2.68837 3.23621 2.71884 3.10811C2.87529 2.45046 3.03858 1.79453 3.19943 1.13799C3.29348 0.754121 3.48521 0.558858 3.82147 0.508742C3.87852 0.500238 3.93711 0.50014 3.99499 0.500137C7.99181 0.499934 11.9886 0.499842 15.9855 0.500707C16.4436 0.500806 16.6803 0.685247 16.7958 1.14616C16.9543 1.77894 17.1079 2.41318 17.252 3.04955C17.2918 3.22541 17.3636 3.30093 17.5457 3.28464C17.7299 3.26815 17.9167 3.27594 18.1022 3.28171C18.4565 3.29273 18.7131 3.47817 18.799 3.81913C19.0337 4.75099 19.2633 5.68436 19.4791 6.62098C19.587 7.08956 19.265 7.49003 18.7917 7.5011C18.4438 7.50924 18.0951 7.51253 17.7477 7.49734C17.5718 7.48965 17.5088 7.5581 17.4996 7.72547C17.4823 8.03976 17.4565 8.35354 17.4353 8.66761C17.4009 9.17661 17.3674 9.68568 17.3349 10.1736C17.3754 10.2387 17.4191 10.2296 17.4583 10.2324C17.8954 10.2641 18.1721 10.5727 18.1477 11.026C18.1203 11.5361 18.0769 12.0453 18.0401 12.5548C17.9972 13.1472 17.9537 13.7394 17.9108 14.3318C17.8542 15.1136 17.7958 15.8954 17.7422 16.6774C17.6902 17.436 17.6459 18.1952 17.5937 18.9538C17.5517 19.5642 17.5084 20.1746 17.4552 20.784C17.4256 21.1224 17.1266 21.3844 16.7647 21.385C16.6016 21.3853 16.5433 21.4354 16.5338 21.6032C16.5008 22.1902 16.4542 22.7764 16.4132 23.3629C16.3772 23.8783 16.3482 24.3944 16.3041 24.909C16.2733 25.2681 15.9979 25.4983 15.6182 25.4986C13.8605 25.4996 12.1029 25.4991 10.3452 25.4992C8.65715 25.4993 6.96911 25.4994 5.26367 25.4995ZM9.04053 19.9489C9.60896 19.9489 10.1774 19.9489 10.7458 19.9489C12.4628 19.9489 14.1799 19.9469 15.8969 19.9523C16.0569 19.9528 16.1258 19.9087 16.1346 19.7387C16.1541 19.3593 16.1908 18.9809 16.2165 18.6018C16.2791 17.6775 16.3378 16.7529 16.4011 15.8287C16.492 14.5016 16.5832 13.1746 16.6814 11.8481C16.6938 11.68 16.6446 11.6571 16.4905 11.6593C15.6844 11.6707 14.8779 11.6777 14.072 11.6621C13.6292 11.6536 13.3472 11.3286 13.3641 10.906C13.3803 10.5031 13.6785 10.2345 14.1146 10.2332C14.6715 10.2315 15.2284 10.2263 15.7851 10.2346C15.96 10.2372 16.0316 10.1748 16.0431 9.99628C16.0941 9.20833 16.1522 8.42086 16.2101 7.63339C16.2161 7.552 16.1947 7.50627 16.1108 7.5046C16.0587 7.50356 16.0065 7.5027 15.9543 7.5027C12.0446 7.50291 8.13488 7.5032 4.22519 7.50352C4.12658 7.50352 4.02791 7.50624 3.92938 7.50341C3.81532 7.50013 3.78259 7.54741 3.79168 7.66693C3.84976 8.43086 3.90166 9.1953 3.95206 9.95981C3.96921 10.22 3.97682 10.2326 4.22195 10.2325C6.73366 10.2324 9.24538 10.2323 11.7571 10.2324C11.8731 10.2324 11.9897 10.2267 12.105 10.2364C12.59 10.2774 12.8796 10.8334 12.6522 11.2743C12.4884 11.5918 12.2126 11.6714 11.8926 11.6711C9.10828 11.6685 6.32398 11.6668 3.53967 11.6645C3.33181 11.6643 3.30952 11.6824 3.32242 11.8991C3.35631 12.4682 3.39438 13.0371 3.43164 13.606C3.46735 14.1513 3.50248 14.6966 3.54087 15.2417C3.5951 16.0117 3.6522 16.7816 3.70786 17.5515C3.7601 18.2742 3.81778 18.9965 3.8603 19.7198C3.87138 19.9083 3.94259 19.9527 4.11571 19.9521C5.7457 19.9463 7.37571 19.9488 9.04053 19.9489ZM4.97512 21.3891C4.75252 21.3938 4.74738 21.4062 4.76167 21.5974C4.81926 22.3672 4.87424 23.1372 4.92379 23.9076C4.94007 24.1607 4.93122 24.1615 5.18057 24.1615C8.38754 24.1616 11.5945 24.1617 14.8015 24.1617C14.8479 24.1617 14.8942 24.1607 14.9406 24.1605C15.0267 24.1601 15.0622 24.1149 15.068 24.0278C15.1236 23.1985 15.1807 22.3692 15.2392 21.5401C15.2469 21.4313 15.2018 21.3866 15.0988 21.3905C15.0351 21.3929 14.9712 21.3899 14.9075 21.3899C11.6077 21.3896 8.30794 21.3894 4.97512 21.3891ZM4.23678 4.72288C3.78427 4.72281 3.33176 4.7227 2.87925 4.72268C2.42154 4.72267 2.42136 4.72267 2.30981 5.17762C2.24109 5.45788 2.173 5.73831 2.09913 6.04119C7.37477 6.04119 12.6232 6.04119 17.8953 6.04119C17.8092 5.67918 17.729 5.34015 17.6479 5.00138C17.581 4.72198 17.5805 4.72192 17.3075 4.72194C12.9622 4.72223 8.61691 4.72257 4.23678 4.72288ZM11.8253 3.28079C13.1627 3.28079 14.5001 3.28079 15.8604 3.28079C15.8424 3.18372 15.8328 3.11464 15.8165 3.04726C15.7427 2.74174 15.661 2.43807 15.5947 2.13087C15.5645 1.99049 15.5047 1.93725 15.3601 1.93739C11.7827 1.94085 8.20528 1.94075 4.62785 1.93714C4.48814 1.937 4.43348 1.99459 4.40464 2.1236C4.33997 2.41286 4.26545 2.69979 4.19558 2.98784C4.1265 3.27261 4.13275 3.28049 4.4153 3.2805C6.8737 3.28057 9.3321 3.28067 11.8253 3.28079Z" stroke="white" mask="url(#path-1-outside-1_230_194)"/>
</svg>
