<svg width="22" height="26" viewBox="0 0 22 26" fill="none" xmlns="http://www.w3.org/2000/svg">
<path d="M18.7883 5.2H16.1883C16.1883 2.327 13.8613 0 10.9883 0C8.11526 0 5.78826 2.327 5.78826 5.2H3.18826C1.75826 5.2 0.588257 6.37 0.588257 7.8V23.4C0.588257 24.83 1.75826 26 3.18826 26H18.7883C20.2183 26 21.3883 24.83 21.3883 23.4V7.8C21.3883 6.37 20.2183 5.2 18.7883 5.2ZM10.9883 2.6C12.4183 2.6 13.5883 3.77 13.5883 5.2H8.38826C8.38826 3.77 9.55826 2.6 10.9883 2.6ZM18.7883 23.4H3.18826V7.8H5.78826V10.4C5.78826 11.115 6.37326 11.7 7.08826 11.7C7.80326 11.7 8.38826 11.115 8.38826 10.4V7.8H13.5883V10.4C13.5883 11.115 14.1733 11.7 14.8883 11.7C15.6033 11.7 16.1883 11.115 16.1883 10.4V7.8H18.7883V23.4Z" fill="white"/>
</svg>
