<svg width="24" height="26" viewBox="0 0 24 26" fill="none" xmlns="http://www.w3.org/2000/svg">
<path d="M11.6667 3.66667L22.3333 3.66667M11.6667 3.66667C11.6667 2.19391 10.4728 1 9 1C7.52724 1 6.33333 2.19391 6.33333 3.66667M11.6667 3.66667C11.6667 5.13943 10.4728 6.33333 9 6.33333C7.52724 6.33333 6.33333 5.13943 6.33333 3.66667M1 22.3333L5 22.3333M5 22.3333C5 23.8061 6.19391 25 7.66667 25C9.13943 25 10.3333 23.8061 10.3333 22.3333M5 22.3333C5 20.8606 6.19391 19.6667 7.66667 19.6667C9.13943 19.6667 10.3333 20.8606 10.3333 22.3333M1 3.66667L6.33333 3.66667M10.3333 22.3333L22.3333 22.3333M18.3333 13L22.3333 13M18.3333 13C18.3333 11.5272 17.1394 10.3333 15.6667 10.3333C14.1939 10.3333 13 11.5272 13 13M18.3333 13C18.3333 14.4728 17.1394 15.6667 15.6667 15.6667C14.1939 15.6667 13 14.4728 13 13M1 13L13 13" stroke="white" stroke-width="2" stroke-linecap="round"/>
</svg>
