<svg width="19" height="19" viewBox="0 0 19 19" fill="none" xmlns="http://www.w3.org/2000/svg">
<path d="M15.8549 12.6331V16.5083C15.8549 16.8509 15.7188 17.1794 15.4766 17.4217C15.2343 17.6639 14.9058 17.8 14.5632 17.8H2.29173C1.94914 17.8 1.62059 17.6639 1.37834 17.4217C1.13609 17.1794 1 16.8509 1 16.5083V4.23688C1 3.8943 1.13609 3.56574 1.37834 3.32349C1.62059 3.08125 1.94914 2.94516 2.29173 2.94516H6.16693M10.0421 11.9872L6.16693 12.6847L6.81279 8.75784L14.2144 1.38209C14.3345 1.26102 14.4774 1.16492 14.6348 1.09934C14.7922 1.03376 14.961 1 15.1315 1C15.3021 1 15.4709 1.03376 15.6283 1.09934C15.7857 1.16492 15.9286 1.26102 16.0487 1.38209L17.4179 2.75132C17.539 2.8714 17.6351 3.01427 17.7007 3.17168C17.7662 3.32909 17.8 3.49792 17.8 3.66844C17.8 3.83897 17.7662 4.0078 17.7007 4.16521C17.6351 4.32262 17.539 4.46549 17.4179 4.58557L10.0421 11.9872Z" stroke="#FFF7ED" stroke-width="2" stroke-linecap="round" stroke-linejoin="round"/>
</svg>
