<svg width="18" height="18" viewBox="0 0 18 18" fill="none" xmlns="http://www.w3.org/2000/svg">
<path d="M0 9.00002C0 9.53458 0.447274 9.97089 0.970912 9.97089H8.02911V17.0292C8.02911 17.5528 8.46547 18 9.00002 18C9.53458 18 9.98188 17.5528 9.98188 17.0292V9.97089H17.0292C17.5528 9.97089 18 9.53458 18 9.00002C18 8.46547 17.5528 8.0182 17.0292 8.0182H9.98188V0.970912C9.98188 0.447274 9.53458 0 9.00002 0C8.46547 0 8.02911 0.447274 8.02911 0.970912V8.0182H0.970912C0.447274 8.0182 0 8.46547 0 9.00002Z" fill="#744236"/>
</svg>
