<svg width="313" height="315" viewBox="0 0 313 315" fill="none" xmlns="http://www.w3.org/2000/svg">
<path d="M0 10C0 4.47715 4.47715 0 10 0H303C308.523 0 313 4.47715 313 10V305C313 310.523 308.523 315 303 315H9.99999C4.47715 315 0 310.523 0 305V10Z" fill="white"/>
<path d="M38.16 31H28V41.16H38.16V31Z" fill="black"/>
<path d="M48.32 31H38.16V41.16H48.32V31Z" fill="black"/>
<path d="M58.48 31H48.32V41.16H58.48V31Z" fill="black"/>
<path d="M68.64 31H58.48V41.16H68.64V31Z" fill="black"/>
<path d="M78.8 31H68.64V41.16H78.8V31Z" fill="black"/>
<path d="M88.96 31H78.8V41.16H88.96V31Z" fill="black"/>
<path d="M99.12 31H88.96V41.16H99.12V31Z" fill="black"/>
<path d="M119.44 31H109.28V41.16H119.44V31Z" fill="black"/>
<path d="M129.6 31H119.44V41.16H129.6V31Z" fill="black"/>
<path d="M149.92 31H139.76V41.16H149.92V31Z" fill="black"/>
<path d="M170.24 31H160.08V41.16H170.24V31Z" fill="black"/>
<path d="M180.4 31H170.24V41.16H180.4V31Z" fill="black"/>
<path d="M190.56 31H180.4V41.16H190.56V31Z" fill="black"/>
<path d="M200.72 31H190.56V41.16H200.72V31Z" fill="black"/>
<path d="M221.04 31H210.88V41.16H221.04V31Z" fill="black"/>
<path d="M231.2 31H221.04V41.16H231.2V31Z" fill="black"/>
<path d="M241.36 31H231.2V41.16H241.36V31Z" fill="black"/>
<path d="M251.52 31H241.36V41.16H251.52V31Z" fill="black"/>
<path d="M261.68 31H251.52V41.16H261.68V31Z" fill="black"/>
<path d="M271.84 31H261.68V41.16H271.84V31Z" fill="black"/>
<path d="M282 31H271.84V41.16H282V31Z" fill="black"/>
<path d="M38.16 41.16H28V51.32H38.16V41.16Z" fill="black"/>
<path d="M99.12 41.16H88.96L88.96 51.32H99.12V41.16Z" fill="black"/>
<path d="M139.76 41.16H129.6V51.32H139.76V41.16Z" fill="black"/>
<path d="M149.92 41.16H139.76V51.32H149.92V41.16Z" fill="black"/>
<path d="M160.08 41.16H149.92V51.32H160.08V41.16Z" fill="black"/>
<path d="M180.4 41.16H170.24V51.32H180.4V41.16Z" fill="black"/>
<path d="M221.04 41.16H210.88V51.32H221.04V41.16Z" fill="black"/>
<path d="M282 41.16H271.84V51.32H282V41.16Z" fill="black"/>
<path d="M38.16 51.32H28V61.48H38.16V51.32Z" fill="black"/>
<path d="M58.48 51.32H48.32V61.48H58.48V51.32Z" fill="black"/>
<path d="M68.64 51.32H58.48V61.48H68.64V51.32Z" fill="black"/>
<path d="M78.8 51.32H68.64V61.48H78.8V51.32Z" fill="black"/>
<path d="M99.12 51.32H88.96V61.48H99.12V51.32Z" fill="black"/>
<path d="M139.76 51.32H129.6V61.48H139.76V51.32Z" fill="black"/>
<path d="M149.92 51.32H139.76V61.48H149.92V51.32Z" fill="black"/>
<path d="M170.24 51.32H160.08V61.48H170.24V51.32Z" fill="black"/>
<path d="M180.4 51.32H170.24V61.48H180.4V51.32Z" fill="black"/>
<path d="M200.72 51.32H190.56V61.48H200.72V51.32Z" fill="black"/>
<path d="M221.04 51.32H210.88V61.48H221.04V51.32Z" fill="black"/>
<path d="M241.36 51.32H231.2V61.48H241.36V51.32Z" fill="black"/>
<path d="M251.52 51.32H241.36V61.48H251.52V51.32Z" fill="black"/>
<path d="M261.68 51.32H251.52V61.48H261.68V51.32Z" fill="black"/>
<path d="M282 51.32H271.84V61.48H282V51.32Z" fill="black"/>
<path d="M38.16 61.48H28V71.64H38.16V61.48Z" fill="black"/>
<path d="M58.48 61.48H48.32V71.64H58.48V61.48Z" fill="black"/>
<path d="M68.64 61.48H58.48V71.64H68.64V61.48Z" fill="black"/>
<path d="M78.8 61.48H68.64V71.64H78.8V61.48Z" fill="black"/>
<path d="M99.12 61.48H88.96V71.64H99.12V61.48Z" fill="black"/>
<path d="M119.44 61.48H109.28V71.64H119.44V61.48Z" fill="black"/>
<path d="M160.08 61.48H149.92V71.64H160.08V61.48Z" fill="black"/>
<path d="M170.24 61.48H160.08V71.64H170.24V61.48Z" fill="black"/>
<path d="M180.4 61.48H170.24V71.64H180.4V61.48Z" fill="black"/>
<path d="M200.72 61.48H190.56V71.64H200.72V61.48Z" fill="black"/>
<path d="M221.04 61.48H210.88V71.64H221.04V61.48Z" fill="black"/>
<path d="M241.36 61.48H231.2V71.64H241.36V61.48Z" fill="black"/>
<path d="M251.52 61.48H241.36V71.64H251.52V61.48Z" fill="black"/>
<path d="M261.68 61.48H251.52V71.64H261.68V61.48Z" fill="black"/>
<path d="M282 61.48H271.84V71.64H282V61.48Z" fill="black"/>
<path d="M38.16 71.64H28V81.8H38.16V71.64Z" fill="black"/>
<path d="M58.48 71.64H48.32V81.8H58.48V71.64Z" fill="black"/>
<path d="M68.64 71.64H58.48V81.8H68.64V71.64Z" fill="black"/>
<path d="M78.8 71.64H68.64V81.8H78.8V71.64Z" fill="black"/>
<path d="M99.12 71.64H88.96V81.8H99.12V71.64Z" fill="black"/>
<path d="M119.44 71.64H109.28V81.8H119.44V71.64Z" fill="black"/>
<path d="M129.6 71.64H119.44V81.8H129.6V71.64Z" fill="black"/>
<path d="M139.76 71.64H129.6V81.8H139.76V71.64Z" fill="black"/>
<path d="M180.4 71.64H170.24V81.8H180.4V71.64Z" fill="black"/>
<path d="M200.72 71.64H190.56V81.8H200.72V71.64Z" fill="black"/>
<path d="M221.04 71.64H210.88V81.8H221.04V71.64Z" fill="black"/>
<path d="M241.36 71.64H231.2V81.8H241.36V71.64Z" fill="black"/>
<path d="M251.52 71.64H241.36V81.8H251.52V71.64Z" fill="black"/>
<path d="M261.68 71.64H251.52V81.8H261.68V71.64Z" fill="black"/>
<path d="M282 71.64H271.84V81.8H282V71.64Z" fill="black"/>
<path d="M38.16 81.8H28V91.96H38.16V81.8Z" fill="black"/>
<path d="M99.12 81.8H88.96V91.96H99.12V81.8Z" fill="black"/>
<path d="M119.44 81.8H109.28V91.96H119.44V81.8Z" fill="black"/>
<path d="M149.92 81.8H139.76V91.96H149.92V81.8Z" fill="black"/>
<path d="M170.24 81.8H160.08V91.96H170.24V81.8Z" fill="black"/>
<path d="M180.4 81.8H170.24V91.96H180.4V81.8Z" fill="black"/>
<path d="M200.72 81.8H190.56V91.96H200.72V81.8Z" fill="black"/>
<path d="M221.04 81.8H210.88V91.96H221.04V81.8Z" fill="black"/>
<path d="M282 81.8H271.84V91.96H282V81.8Z" fill="black"/>
<path d="M38.16 91.96H28V102.12H38.16V91.96Z" fill="black"/>
<path d="M48.32 91.96L38.16 91.96V102.12H48.32V91.96Z" fill="black"/>
<path d="M58.48 91.96H48.32V102.12H58.48V91.96Z" fill="black"/>
<path d="M68.64 91.96H58.48V102.12H68.64V91.96Z" fill="black"/>
<path d="M78.8 91.96H68.64V102.12H78.8V91.96Z" fill="black"/>
<path d="M88.96 91.96L78.8 91.96V102.12H88.96L88.96 91.96Z" fill="black"/>
<path d="M99.12 91.96H88.96L88.96 102.12H99.12V91.96Z" fill="black"/>
<path d="M119.44 91.96H109.28V102.12H119.44V91.96Z" fill="black"/>
<path d="M139.76 91.96L129.6 91.96V102.12H139.76V91.96Z" fill="black"/>
<path d="M160.08 91.96H149.92V102.12H160.08V91.96Z" fill="black"/>
<path d="M180.4 91.96H170.24V102.12H180.4V91.96Z" fill="black"/>
<path d="M200.72 91.96H190.56V102.12H200.72V91.96Z" fill="black"/>
<path d="M221.04 91.96H210.88V102.12H221.04V91.96Z" fill="black"/>
<path d="M231.2 91.96L221.04 91.96V102.12H231.2V91.96Z" fill="black"/>
<path d="M241.36 91.96H231.2V102.12H241.36V91.96Z" fill="black"/>
<path d="M251.52 91.96H241.36V102.12H251.52V91.96Z" fill="black"/>
<path d="M261.68 91.96H251.52V102.12H261.68V91.96Z" fill="black"/>
<path d="M271.84 91.96L261.68 91.96V102.12H271.84V91.96Z" fill="black"/>
<path d="M282 91.96H271.84V102.12H282V91.96Z" fill="black"/>
<path d="M119.44 102.12H109.28V112.28H119.44V102.12Z" fill="black"/>
<path d="M149.92 102.12H139.76V112.28H149.92V102.12Z" fill="black"/>
<path d="M160.08 102.12H149.92V112.28H160.08V102.12Z" fill="black"/>
<path d="M170.24 102.12H160.08V112.28H170.24V102.12Z" fill="black"/>
<path d="M180.4 102.12H170.24V112.28H180.4V102.12Z" fill="black"/>
<path d="M190.56 102.12H180.4V112.28H190.56V102.12Z" fill="black"/>
<path d="M38.16 112.28H28V122.44H38.16V112.28Z" fill="black"/>
<path d="M48.32 112.28H38.16V122.44H48.32V112.28Z" fill="black"/>
<path d="M58.48 112.28H48.32V122.44H58.48V112.28Z" fill="black"/>
<path d="M78.8 112.28H68.64V122.44H78.8V112.28Z" fill="black"/>
<path d="M99.12 112.28H88.96V122.44H99.12V112.28Z" fill="black"/>
<path d="M119.44 112.28H109.28V122.44H119.44V112.28Z" fill="black"/>
<path d="M129.6 112.28H119.44V122.44H129.6V112.28Z" fill="black"/>
<path d="M139.76 112.28H129.6V122.44H139.76V112.28Z" fill="black"/>
<path d="M210.88 112.28H200.72V122.44H210.88V112.28Z" fill="black"/>
<path d="M221.04 112.28H210.88V122.44H221.04V112.28Z" fill="black"/>
<path d="M231.2 112.28H221.04V122.44H231.2V112.28Z" fill="black"/>
<path d="M241.36 112.28H231.2V122.44H241.36V112.28Z" fill="black"/>
<path d="M251.52 112.28H241.36V122.44H251.52V112.28Z" fill="black"/>
<path d="M282 112.28H271.84V122.44H282V112.28Z" fill="black"/>
<path d="M38.16 122.44H28V132.6H38.16V122.44Z" fill="black"/>
<path d="M58.48 122.44H48.32V132.6H58.48V122.44Z" fill="black"/>
<path d="M68.64 122.44H58.48V132.6H68.64V122.44Z" fill="black"/>
<path d="M109.28 122.44H99.12V132.6H109.28V122.44Z" fill="black"/>
<path d="M149.92 122.44H139.76V132.6H149.92V122.44Z" fill="black"/>
<path d="M170.24 122.44H160.08V132.6H170.24V122.44Z" fill="black"/>
<path d="M180.4 122.44H170.24V132.6H180.4V122.44Z" fill="black"/>
<path d="M190.56 122.44H180.4V132.6H190.56V122.44Z" fill="black"/>
<path d="M210.88 122.44H200.72V132.6H210.88V122.44Z" fill="black"/>
<path d="M231.2 122.44H221.04V132.6H231.2V122.44Z" fill="black"/>
<path d="M271.84 122.44H261.68V132.6H271.84V122.44Z" fill="black"/>
<path d="M48.32 132.6H38.16V142.76H48.32V132.6Z" fill="black"/>
<path d="M68.64 132.6H58.48V142.76H68.64V132.6Z" fill="black"/>
<path d="M99.12 132.6H88.96V142.76H99.12V132.6Z" fill="black"/>
<path d="M129.6 132.6H119.44V142.76H129.6V132.6Z" fill="black"/>
<path d="M160.08 132.6H149.92V142.76H160.08V132.6Z" fill="black"/>
<path d="M170.24 132.6H160.08V142.76H170.24V132.6Z" fill="black"/>
<path d="M180.4 132.6H170.24V142.76H180.4V132.6Z" fill="black"/>
<path d="M200.72 132.6H190.56V142.76H200.72V132.6Z" fill="black"/>
<path d="M221.04 132.6H210.88V142.76H221.04V132.6Z" fill="black"/>
<path d="M231.2 132.6H221.04V142.76H231.2V132.6Z" fill="black"/>
<path d="M251.52 132.6H241.36V142.76H251.52V132.6Z" fill="black"/>
<path d="M38.16 142.76H28V152.92H38.16V142.76Z" fill="black"/>
<path d="M48.32 142.76H38.16V152.92H48.32V142.76Z" fill="black"/>
<path d="M68.64 142.76H58.48V152.92H68.64V142.76Z" fill="black"/>
<path d="M88.96 142.76H78.8V152.92H88.96L88.96 142.76Z" fill="black"/>
<path d="M119.44 142.76H109.28V152.92H119.44V142.76Z" fill="black"/>
<path d="M129.6 142.76H119.44V152.92H129.6V142.76Z" fill="black"/>
<path d="M139.76 142.76H129.6V152.92H139.76V142.76Z" fill="black"/>
<path d="M149.92 142.76H139.76V152.92H149.92V142.76Z" fill="black"/>
<path d="M160.08 142.76H149.92V152.92H160.08V142.76Z" fill="black"/>
<path d="M200.72 142.76H190.56V152.92H200.72V142.76Z" fill="black"/>
<path d="M210.88 142.76H200.72V152.92H210.88V142.76Z" fill="black"/>
<path d="M231.2 142.76H221.04V152.92H231.2V142.76Z" fill="black"/>
<path d="M241.36 142.76H231.2V152.92H241.36V142.76Z" fill="black"/>
<path d="M261.68 142.76H251.52V152.92H261.68V142.76Z" fill="black"/>
<path d="M271.84 142.76H261.68V152.92H271.84V142.76Z" fill="black"/>
<path d="M282 142.76H271.84V152.92H282V142.76Z" fill="black"/>
<path d="M38.16 152.92H28V163.08H38.16V152.92Z" fill="black"/>
<path d="M68.64 152.92H58.48V163.08H68.64V152.92Z" fill="black"/>
<path d="M78.8 152.92H68.64V163.08H78.8V152.92Z" fill="black"/>
<path d="M99.12 152.92H88.96L88.96 163.08H99.12V152.92Z" fill="black"/>
<path d="M119.44 152.92H109.28V163.08H119.44V152.92Z" fill="black"/>
<path d="M149.92 152.92H139.76V163.08H149.92V152.92Z" fill="black"/>
<path d="M170.24 152.92H160.08V163.08H170.24V152.92Z" fill="black"/>
<path d="M190.56 152.92H180.4V163.08H190.56V152.92Z" fill="black"/>
<path d="M200.72 152.92H190.56V163.08H200.72V152.92Z" fill="black"/>
<path d="M221.04 152.92H210.88V163.08H221.04V152.92Z" fill="black"/>
<path d="M251.52 152.92H241.36V163.08H251.52V152.92Z" fill="black"/>
<path d="M271.84 152.92H261.68V163.08H271.84V152.92Z" fill="black"/>
<path d="M282 152.92H271.84V163.08H282V152.92Z" fill="black"/>
<path d="M38.16 163.08H28V173.24H38.16V163.08Z" fill="black"/>
<path d="M48.32 163.08H38.16V173.24H48.32V163.08Z" fill="black"/>
<path d="M58.48 163.08H48.32V173.24H58.48V163.08Z" fill="black"/>
<path d="M78.8 163.08H68.64V173.24H78.8V163.08Z" fill="black"/>
<path d="M88.96 163.08H78.8V173.24H88.96L88.96 163.08Z" fill="black"/>
<path d="M119.44 163.08H109.28V173.24H119.44V163.08Z" fill="black"/>
<path d="M160.08 163.08H149.92V173.24H160.08V163.08Z" fill="black"/>
<path d="M190.56 163.08H180.4V173.24H190.56V163.08Z" fill="black"/>
<path d="M221.04 163.08H210.88V173.24H221.04V163.08Z" fill="black"/>
<path d="M231.2 163.08H221.04V173.24H231.2V163.08Z" fill="black"/>
<path d="M241.36 163.08H231.2V173.24H241.36V163.08Z" fill="black"/>
<path d="M251.52 163.08H241.36V173.24H251.52V163.08Z" fill="black"/>
<path d="M261.68 163.08H251.52V173.24H261.68V163.08Z" fill="black"/>
<path d="M271.84 163.08H261.68V173.24H271.84V163.08Z" fill="black"/>
<path d="M282 163.08H271.84V173.24H282V163.08Z" fill="black"/>
<path d="M38.16 173.24H28V183.4H38.16V173.24Z" fill="black"/>
<path d="M48.32 173.24H38.16V183.4H48.32V173.24Z" fill="black"/>
<path d="M58.48 173.24H48.32V183.4H58.48V173.24Z" fill="black"/>
<path d="M68.64 173.24H58.48V183.4H68.64V173.24Z" fill="black"/>
<path d="M88.96 173.24H78.8V183.4H88.96V173.24Z" fill="black"/>
<path d="M99.12 173.24H88.96V183.4H99.12V173.24Z" fill="black"/>
<path d="M109.28 173.24H99.12V183.4H109.28V173.24Z" fill="black"/>
<path d="M119.44 173.24H109.28V183.4H119.44V173.24Z" fill="black"/>
<path d="M129.6 173.24H119.44V183.4H129.6V173.24Z" fill="black"/>
<path d="M139.76 173.24H129.6V183.4H139.76V173.24Z" fill="black"/>
<path d="M149.92 173.24H139.76V183.4H149.92V173.24Z" fill="black"/>
<path d="M160.08 173.24H149.92V183.4H160.08V173.24Z" fill="black"/>
<path d="M180.4 173.24H170.24V183.4H180.4L180.4 173.24Z" fill="black"/>
<path d="M190.56 173.24H180.4L180.4 183.4H190.56V173.24Z" fill="black"/>
<path d="M221.04 173.24H210.88V183.4H221.04V173.24Z" fill="black"/>
<path d="M38.16 183.4H28V193.56H38.16V183.4Z" fill="black"/>
<path d="M48.32 183.4H38.16V193.56H48.32V183.4Z" fill="black"/>
<path d="M68.64 183.4H58.48V193.56H68.64V183.4Z" fill="black"/>
<path d="M78.8 183.4H68.64V193.56H78.8V183.4Z" fill="black"/>
<path d="M129.6 183.4H119.44V193.56H129.6V183.4Z" fill="black"/>
<path d="M139.76 183.4H129.6V193.56H139.76V183.4Z" fill="black"/>
<path d="M149.92 183.4H139.76V193.56H149.92V183.4Z" fill="black"/>
<path d="M170.24 183.4H160.08V193.56H170.24V183.4Z" fill="black"/>
<path d="M180.4 183.4H170.24V193.56H180.4V183.4Z" fill="black"/>
<path d="M190.56 183.4H180.4V193.56H190.56V183.4Z" fill="black"/>
<path d="M200.72 183.4L190.56 183.4V193.56H200.72V183.4Z" fill="black"/>
<path d="M231.2 183.4L221.04 183.4V193.56H231.2V183.4Z" fill="black"/>
<path d="M241.36 183.4H231.2V193.56H241.36V183.4Z" fill="black"/>
<path d="M282 183.4H271.84V193.56H282V183.4Z" fill="black"/>
<path d="M68.64 193.56H58.48V203.72H68.64V193.56Z" fill="black"/>
<path d="M99.12 193.56H88.96V203.72H99.12V193.56Z" fill="black"/>
<path d="M109.28 193.56H99.12V203.72H109.28V193.56Z" fill="black"/>
<path d="M119.44 193.56H109.28V203.72H119.44V193.56Z" fill="black"/>
<path d="M139.76 193.56H129.6V203.72H139.76V193.56Z" fill="black"/>
<path d="M160.08 193.56H149.92V203.72H160.08V193.56Z" fill="black"/>
<path d="M170.24 193.56H160.08V203.72H170.24V193.56Z" fill="black"/>
<path d="M190.56 193.56H180.4L180.4 203.72H190.56V193.56Z" fill="black"/>
<path d="M200.72 193.56H190.56V203.72H200.72V193.56Z" fill="black"/>
<path d="M210.88 193.56H200.72V203.72H210.88V193.56Z" fill="black"/>
<path d="M221.04 193.56H210.88V203.72H221.04V193.56Z" fill="black"/>
<path d="M231.2 193.56H221.04V203.72H231.2V193.56Z" fill="black"/>
<path d="M241.36 193.56H231.2V203.72H241.36V193.56Z" fill="black"/>
<path d="M261.68 193.56H251.52V203.72H261.68V193.56Z" fill="black"/>
<path d="M282 193.56H271.84V203.72H282V193.56Z" fill="black"/>
<path d="M119.44 203.72H109.28V213.88H119.44V203.72Z" fill="black"/>
<path d="M139.76 203.72H129.6V213.88H139.76V203.72Z" fill="black"/>
<path d="M180.4 203.72H170.24V213.88H180.4L180.4 203.72Z" fill="black"/>
<path d="M190.56 203.72H180.4L180.4 213.88H190.56V203.72Z" fill="black"/>
<path d="M200.72 203.72H190.56V213.88H200.72V203.72Z" fill="black"/>
<path d="M241.36 203.72H231.2V213.88H241.36V203.72Z" fill="black"/>
<path d="M251.52 203.72H241.36V213.88H251.52V203.72Z" fill="black"/>
<path d="M261.68 203.72H251.52V213.88H261.68V203.72Z" fill="black"/>
<path d="M282 203.72H271.84V213.88H282V203.72Z" fill="black"/>
<path d="M38.16 213.88H28V224.04H38.16V213.88Z" fill="black"/>
<path d="M48.32 213.88H38.16V224.04H48.32V213.88Z" fill="black"/>
<path d="M58.48 213.88H48.32V224.04H58.48V213.88Z" fill="black"/>
<path d="M68.64 213.88H58.48V224.04H68.64V213.88Z" fill="black"/>
<path d="M78.8 213.88H68.64V224.04H78.8V213.88Z" fill="black"/>
<path d="M88.96 213.88H78.8V224.04H88.96V213.88Z" fill="black"/>
<path d="M99.12 213.88H88.96V224.04H99.12V213.88Z" fill="black"/>
<path d="M149.92 213.88H139.76V224.04H149.92V213.88Z" fill="black"/>
<path d="M160.08 213.88H149.92V224.04H160.08V213.88Z" fill="black"/>
<path d="M180.4 213.88H170.24V224.04H180.4V213.88Z" fill="black"/>
<path d="M200.72 213.88H190.56V224.04H200.72V213.88Z" fill="black"/>
<path d="M221.04 213.88H210.88V224.04H221.04V213.88Z" fill="black"/>
<path d="M241.36 213.88H231.2V224.04H241.36V213.88Z" fill="black"/>
<path d="M251.52 213.88H241.36V224.04H251.52V213.88Z" fill="black"/>
<path d="M38.16 224.04H28V234.2H38.16V224.04Z" fill="black"/>
<path d="M99.12 224.04H88.96L88.96 234.2H99.12V224.04Z" fill="black"/>
<path d="M129.6 224.04H119.44V234.2H129.6V224.04Z" fill="black"/>
<path d="M139.76 224.04H129.6V234.2H139.76V224.04Z" fill="black"/>
<path d="M190.56 224.04H180.4L180.4 234.2H190.56V224.04Z" fill="black"/>
<path d="M200.72 224.04H190.56V234.2H200.72V224.04Z" fill="black"/>
<path d="M241.36 224.04H231.2V234.2H241.36V224.04Z" fill="black"/>
<path d="M261.68 224.04H251.52V234.2H261.68V224.04Z" fill="black"/>
<path d="M38.16 234.2H28V244.36H38.16V234.2Z" fill="black"/>
<path d="M58.48 234.2H48.32V244.36H58.48V234.2Z" fill="black"/>
<path d="M68.64 234.2H58.48V244.36H68.64V234.2Z" fill="black"/>
<path d="M78.8 234.2H68.64V244.36H78.8V234.2Z" fill="black"/>
<path d="M99.12 234.2H88.96V244.36H99.12V234.2Z" fill="black"/>
<path d="M119.44 234.2H109.28V244.36H119.44V234.2Z" fill="black"/>
<path d="M129.6 234.2H119.44V244.36H129.6V234.2Z" fill="black"/>
<path d="M170.24 234.2H160.08V244.36H170.24V234.2Z" fill="black"/>
<path d="M190.56 234.2H180.4V244.36H190.56V234.2Z" fill="black"/>
<path d="M200.72 234.2H190.56V244.36H200.72V234.2Z" fill="black"/>
<path d="M210.88 234.2H200.72V244.36H210.88V234.2Z" fill="black"/>
<path d="M221.04 234.2H210.88V244.36H221.04V234.2Z" fill="black"/>
<path d="M231.2 234.2H221.04V244.36H231.2V234.2Z" fill="black"/>
<path d="M241.36 234.2H231.2V244.36H241.36V234.2Z" fill="black"/>
<path d="M261.68 234.2H251.52V244.36H261.68V234.2Z" fill="black"/>
<path d="M282 234.2H271.84V244.36H282V234.2Z" fill="black"/>
<path d="M38.16 244.36H28V254.52H38.16V244.36Z" fill="black"/>
<path d="M58.48 244.36H48.32V254.52H58.48V244.36Z" fill="black"/>
<path d="M68.64 244.36H58.48V254.52H68.64V244.36Z" fill="black"/>
<path d="M78.8 244.36H68.64V254.52H78.8V244.36Z" fill="black"/>
<path d="M99.12 244.36H88.96V254.52H99.12V244.36Z" fill="black"/>
<path d="M149.92 244.36H139.76V254.52H149.92V244.36Z" fill="black"/>
<path d="M160.08 244.36H149.92V254.52H160.08V244.36Z" fill="black"/>
<path d="M190.56 244.36H180.4V254.52H190.56V244.36Z" fill="black"/>
<path d="M200.72 244.36H190.56V254.52H200.72V244.36Z" fill="black"/>
<path d="M210.88 244.36H200.72V254.52H210.88V244.36Z" fill="black"/>
<path d="M231.2 244.36H221.04V254.52H231.2V244.36Z" fill="black"/>
<path d="M241.36 244.36H231.2V254.52H241.36V244.36Z" fill="black"/>
<path d="M251.52 244.36H241.36V254.52H251.52V244.36Z" fill="black"/>
<path d="M261.68 244.36H251.52V254.52H261.68V244.36Z" fill="black"/>
<path d="M271.84 244.36H261.68V254.52H271.84V244.36Z" fill="black"/>
<path d="M282 244.36H271.84V254.52H282V244.36Z" fill="black"/>
<path d="M38.16 254.52H28V264.68H38.16V254.52Z" fill="black"/>
<path d="M58.48 254.52H48.32V264.68H58.48V254.52Z" fill="black"/>
<path d="M68.64 254.52H58.48V264.68H68.64V254.52Z" fill="black"/>
<path d="M78.8 254.52H68.64V264.68H78.8V254.52Z" fill="black"/>
<path d="M99.12 254.52H88.96V264.68H99.12V254.52Z" fill="black"/>
<path d="M119.44 254.52H109.28V264.68H119.44V254.52Z" fill="black"/>
<path d="M129.6 254.52H119.44V264.68H129.6V254.52Z" fill="black"/>
<path d="M139.76 254.52H129.6V264.68H139.76V254.52Z" fill="black"/>
<path d="M149.92 254.52H139.76V264.68H149.92V254.52Z" fill="black"/>
<path d="M170.24 254.52H160.08V264.68H170.24V254.52Z" fill="black"/>
<path d="M190.56 254.52H180.4V264.68H190.56V254.52Z" fill="black"/>
<path d="M200.72 254.52H190.56V264.68H200.72V254.52Z" fill="black"/>
<path d="M210.88 254.52H200.72V264.68H210.88V254.52Z" fill="black"/>
<path d="M221.04 254.52H210.88V264.68H221.04V254.52Z" fill="black"/>
<path d="M261.68 254.52H251.52V264.68H261.68V254.52Z" fill="black"/>
<path d="M271.84 254.52H261.68V264.68H271.84V254.52Z" fill="black"/>
<path d="M38.16 264.68H28V274.84H38.16V264.68Z" fill="black"/>
<path d="M99.12 264.68H88.96V274.84H99.12V264.68Z" fill="black"/>
<path d="M119.44 264.68H109.28V274.84H119.44V264.68Z" fill="black"/>
<path d="M129.6 264.68H119.44V274.84H129.6V264.68Z" fill="black"/>
<path d="M160.08 264.68H149.92V274.84H160.08V264.68Z" fill="black"/>
<path d="M180.4 264.68H170.24V274.84H180.4L180.4 264.68Z" fill="black"/>
<path d="M251.52 264.68H241.36V274.84H251.52V264.68Z" fill="black"/>
<path d="M261.68 264.68H251.52V274.84H261.68V264.68Z" fill="black"/>
<path d="M271.84 264.68H261.68V274.84H271.84V264.68Z" fill="black"/>
<path d="M38.16 274.84H28V285H38.16V274.84Z" fill="black"/>
<path d="M48.32 274.84H38.16V285H48.32V274.84Z" fill="black"/>
<path d="M58.48 274.84H48.32V285H58.48V274.84Z" fill="black"/>
<path d="M68.64 274.84H58.48V285H68.64V274.84Z" fill="black"/>
<path d="M78.8 274.84H68.64V285H78.8V274.84Z" fill="black"/>
<path d="M88.96 274.84H78.8V285H88.96L88.96 274.84Z" fill="black"/>
<path d="M99.12 274.84H88.96L88.96 285H99.12V274.84Z" fill="black"/>
<path d="M119.44 274.84H109.28V285H119.44V274.84Z" fill="black"/>
<path d="M139.76 274.84H129.6V285H139.76V274.84Z" fill="black"/>
<path d="M149.92 274.84H139.76V285H149.92V274.84Z" fill="black"/>
<path d="M160.08 274.84H149.92V285H160.08V274.84Z" fill="black"/>
<path d="M180.4 274.84H170.24V285H180.4V274.84Z" fill="black"/>
<path d="M200.72 274.84H190.56V285H200.72V274.84Z" fill="black"/>
<path d="M221.04 274.84H210.88V285H221.04V274.84Z" fill="black"/>
<path d="M231.2 274.84H221.04V285H231.2V274.84Z" fill="black"/>
<path d="M241.36 274.84H231.2V285H241.36V274.84Z" fill="black"/>
<path d="M251.52 274.84H241.36V285H251.52V274.84Z" fill="black"/>
<path d="M261.68 274.84H251.52V285H261.68V274.84Z" fill="black"/>
<path d="M271.84 274.84H261.68V285H271.84V274.84Z" fill="black"/>
<path d="M282 274.84H271.84V285H282V274.84Z" fill="black"/>
</svg>
